<?xml version="1.0" standalone="no"?>
<!DOCTYPE svg PUBLIC "-//W3C//DTD SVG 20010904//EN"
 "http://www.w3.org/TR/2001/REC-SVG-20010904/DTD/svg10.dtd">
<svg version="1.0" xmlns="http://www.w3.org/2000/svg"
 width="540.000000pt" height="540.000000pt" viewBox="0 0 540.000000 540.000000"
 preserveAspectRatio="xMidYMid meet">
<metadata>
Created by potrace 1.11, written by Peter Selinger 2001-2013
</metadata>
<g transform="translate(0.000000,540.000000) scale(0.100000,-0.100000)"
fill="#000000" stroke="none">
<path d="M1566 4715 c-605 -216 -1106 -396 -1113 -401 -12 -7 15 -264 157
-1489 94 -814 174 -1483 178 -1487 4 -4 414 -232 912 -508 498 -276 923 -512
945 -525 l41 -23 964 533 c864 479 965 537 972 562 13 54 371 2943 366 2948
-10 11 -2289 785 -2306 784 -9 0 -512 -178 -1116 -394z m1963 -1585 c470
-1002 785 -1686 778 -1687 -7 -2 -131 0 -276 5 l-264 7 -166 385 c-92 212
-170 391 -174 398 -6 9 -157 12 -700 12 -381 0 -697 -4 -703 -8 -6 -4 -80
-181 -165 -393 l-154 -387 -220 -7 c-121 -4 -252 -5 -292 -3 l-72 3 782 1739
782 1739 27 -59 c14 -32 382 -817 817 -1744z"/>
<path d="M2687 3803 c-9 -15 -448 -1054 -454 -1075 -5 -17 23 -18 491 -18 273
0 496 2 496 4 0 4 -479 1006 -507 1060 -11 21 -23 34 -26 29z"/>
</g>
</svg>
